<svg id="visual" viewBox="0 0 1536 900" width="1536" height="900" xmlns="http://www.w3.org/2000/svg" xmlns:xlink="http://www.w3.org/1999/xlink" version="1.1"><g stroke-width="1" stroke-linejoin="bevel"><path d="M1026 472L1033 900L1536 900Z" fill="#656565" stroke="#656565"></path><path d="M1536 900L1536 459L1026 472Z" fill="#545454" stroke="#545454"></path><path d="M1536 459L1038 0L1026 472Z" fill="#aeaeae" stroke="#aeaeae"></path><path d="M1536 459L1536 0L1038 0Z" fill="#161616" stroke="#161616"></path><path d="M519 0L487 450L1026 472Z" fill="#898989" stroke="#898989"></path><path d="M1026 472L480 900L1033 900Z" fill="#aeaeae" stroke="#aeaeae"></path><path d="M487 450L480 900L1026 472Z" fill="#000000" stroke="#000000"></path><path d="M1038 0L519 0L1026 472Z" fill="#242424" stroke="#242424"></path><path d="M487 450L0 900L480 900Z" fill="#aeaeae" stroke="#aeaeae"></path><path d="M0 416L0 900L487 450Z" fill="#161616" stroke="#161616"></path><path d="M0 0L0 416L487 450Z" fill="#9b9b9b" stroke="#9b9b9b"></path><path d="M519 0L0 0L487 450Z" fill="#000000" stroke="#000000"></path></g></svg>