<svg id="visual" viewBox="0 0 900 600" width="900" height="600" xmlns="http://www.w3.org/2000/svg" xmlns:xlink="http://www.w3.org/1999/xlink" version="1.1"><g stroke-width="1" stroke-linejoin="bevel"><path d="M460 299L523 215L412 264Z" fill="#1c2a35" stroke="#1c2a35"></path><path d="M523 215L384 185L412 264Z" fill="#8ca1ab" stroke="#8ca1ab"></path><path d="M460 299L573 229L523 215Z" fill="#5f717d" stroke="#5f717d"></path><path d="M405 413L530 395L460 299Z" fill="#364551" stroke="#364551"></path><path d="M460 299L629 302L573 229Z" fill="#51626e" stroke="#51626e"></path><path d="M530 395L629 302L460 299Z" fill="#7d919b" stroke="#7d919b"></path><path d="M492 62L384 185L523 215Z" fill="#43535f" stroke="#43535f"></path><path d="M492 62L413 73L384 185Z" fill="#51626e" stroke="#51626e"></path><path d="M636 81L523 215L573 229Z" fill="#7d919b" stroke="#7d919b"></path><path d="M636 81L492 62L523 215Z" fill="#43535f" stroke="#43535f"></path><path d="M300 320L405 413L412 264Z" fill="#5f717d" stroke="#5f717d"></path><path d="M412 264L405 413L460 299Z" fill="#5f717d" stroke="#5f717d"></path><path d="M264 195L300 320L384 185Z" fill="#00101c" stroke="#00101c"></path><path d="M384 185L300 320L412 264Z" fill="#6e818c" stroke="#6e818c"></path><path d="M320 61L264 195L384 185Z" fill="#364551" stroke="#364551"></path><path d="M629 302L672 180L573 229Z" fill="#101d28" stroke="#101d28"></path><path d="M398 0L320 61L413 73Z" fill="#5f717d" stroke="#5f717d"></path><path d="M413 73L320 61L384 185Z" fill="#293743" stroke="#293743"></path><path d="M672 180L636 81L573 229Z" fill="#293743" stroke="#293743"></path><path d="M203 71L234 214L264 195Z" fill="#5f717d" stroke="#5f717d"></path><path d="M264 195L234 214L300 320Z" fill="#43535f" stroke="#43535f"></path><path d="M530 395L610 429L629 302Z" fill="#51626e" stroke="#51626e"></path><path d="M629 302L714 281L672 180Z" fill="#43535f" stroke="#43535f"></path><path d="M574 491L610 429L530 395Z" fill="#8ca1ab" stroke="#8ca1ab"></path><path d="M583 0L493 0L492 62Z" fill="#5f717d" stroke="#5f717d"></path><path d="M492 62L493 0L413 73Z" fill="#6e818c" stroke="#6e818c"></path><path d="M493 0L398 0L413 73Z" fill="#51626e" stroke="#51626e"></path><path d="M713 385L714 281L629 302Z" fill="#5f717d" stroke="#5f717d"></path><path d="M672 180L693 89L636 81Z" fill="#5f717d" stroke="#5f717d"></path><path d="M405 413L529 485L530 395Z" fill="#00101c" stroke="#00101c"></path><path d="M300 320L278 411L405 413Z" fill="#101d28" stroke="#101d28"></path><path d="M405 413L426 499L529 485Z" fill="#5f717d" stroke="#5f717d"></path><path d="M211 394L278 411L300 320Z" fill="#364551" stroke="#364551"></path><path d="M234 214L216 296L300 320Z" fill="#1c2a35" stroke="#1c2a35"></path><path d="M275 497L426 499L405 413Z" fill="#43535f" stroke="#43535f"></path><path d="M636 81L583 0L492 62Z" fill="#364551" stroke="#364551"></path><path d="M834 202L693 89L672 180Z" fill="#6e818c" stroke="#6e818c"></path><path d="M636 81L702 0L583 0Z" fill="#1c2a35" stroke="#1c2a35"></path><path d="M477 600L574 491L529 485Z" fill="#6e818c" stroke="#6e818c"></path><path d="M529 485L574 491L530 395Z" fill="#7d919b" stroke="#7d919b"></path><path d="M610 429L713 385L629 302Z" fill="#00101c" stroke="#00101c"></path><path d="M398 0L327 0L320 61Z" fill="#364551" stroke="#364551"></path><path d="M320 61L203 71L264 195Z" fill="#7d919b" stroke="#7d919b"></path><path d="M707 525L713 385L610 429Z" fill="#6e818c" stroke="#6e818c"></path><path d="M216 296L211 394L300 320Z" fill="#364551" stroke="#364551"></path><path d="M278 411L275 497L405 413Z" fill="#101d28" stroke="#101d28"></path><path d="M199 0L203 71L320 61Z" fill="#101d28" stroke="#101d28"></path><path d="M234 214L94 269L216 296Z" fill="#101d28" stroke="#101d28"></path><path d="M216 296L95 388L211 394Z" fill="#6e818c" stroke="#6e818c"></path><path d="M211 394L275 497L278 411Z" fill="#51626e" stroke="#51626e"></path><path d="M797 69L702 0L693 89Z" fill="#1c2a35" stroke="#1c2a35"></path><path d="M693 89L702 0L636 81Z" fill="#1c2a35" stroke="#1c2a35"></path><path d="M713 385L817 313L714 281Z" fill="#1c2a35" stroke="#1c2a35"></path><path d="M714 281L834 202L672 180Z" fill="#43535f" stroke="#43535f"></path><path d="M835 415L817 313L713 385Z" fill="#43535f" stroke="#43535f"></path><path d="M327 0L199 0L320 61Z" fill="#8ca1ab" stroke="#8ca1ab"></path><path d="M93 209L94 269L234 214Z" fill="#5f717d" stroke="#5f717d"></path><path d="M426 499L477 600L529 485Z" fill="#00101c" stroke="#00101c"></path><path d="M574 491L707 525L610 429Z" fill="#101d28" stroke="#101d28"></path><path d="M371 600L477 600L426 499Z" fill="#6e818c" stroke="#6e818c"></path><path d="M817 313L834 202L714 281Z" fill="#1c2a35" stroke="#1c2a35"></path><path d="M834 202L797 69L693 89Z" fill="#00101c" stroke="#00101c"></path><path d="M629 600L707 525L574 491Z" fill="#364551" stroke="#364551"></path><path d="M275 497L371 600L426 499Z" fill="#364551" stroke="#364551"></path><path d="M93 209L234 214L84 114Z" fill="#293743" stroke="#293743"></path><path d="M211 394L222 524L275 497Z" fill="#101d28" stroke="#101d28"></path><path d="M84 114L234 214L203 71Z" fill="#00101c" stroke="#00101c"></path><path d="M136 463L222 524L211 394Z" fill="#293743" stroke="#293743"></path><path d="M275 497L281 600L371 600Z" fill="#43535f" stroke="#43535f"></path><path d="M477 600L629 600L574 491Z" fill="#101d28" stroke="#101d28"></path><path d="M95 388L136 463L211 394Z" fill="#5f717d" stroke="#5f717d"></path><path d="M0 375L95 388L94 269Z" fill="#7d919b" stroke="#7d919b"></path><path d="M94 269L95 388L216 296Z" fill="#5f717d" stroke="#5f717d"></path><path d="M134 0L84 114L203 71Z" fill="#00101c" stroke="#00101c"></path><path d="M93 209L0 260L94 269Z" fill="#364551" stroke="#364551"></path><path d="M199 600L281 600L222 524Z" fill="#293743" stroke="#293743"></path><path d="M222 524L281 600L275 497Z" fill="#1c2a35" stroke="#1c2a35"></path><path d="M786 517L713 385L707 525Z" fill="#00101c" stroke="#00101c"></path><path d="M786 517L835 415L713 385Z" fill="#5f717d" stroke="#5f717d"></path><path d="M817 313L900 224L834 202Z" fill="#6e818c" stroke="#6e818c"></path><path d="M199 0L134 0L203 71Z" fill="#1c2a35" stroke="#1c2a35"></path><path d="M900 0L807 0L797 69Z" fill="#7d919b" stroke="#7d919b"></path><path d="M797 69L807 0L702 0Z" fill="#51626e" stroke="#51626e"></path><path d="M705 600L786 517L707 525Z" fill="#101d28" stroke="#101d28"></path><path d="M629 600L705 600L707 525Z" fill="#8ca1ab" stroke="#8ca1ab"></path><path d="M900 335L900 224L817 313Z" fill="#6e818c" stroke="#6e818c"></path><path d="M834 202L900 106L797 69Z" fill="#00101c" stroke="#00101c"></path><path d="M900 364L900 335L817 313Z" fill="#00101c" stroke="#00101c"></path><path d="M900 364L817 313L835 415Z" fill="#1c2a35" stroke="#1c2a35"></path><path d="M113 600L199 600L222 524Z" fill="#293743" stroke="#293743"></path><path d="M113 600L222 524L136 463Z" fill="#7d919b" stroke="#7d919b"></path><path d="M900 487L900 364L835 415Z" fill="#8ca1ab" stroke="#8ca1ab"></path><path d="M900 224L900 106L834 202Z" fill="#8ca1ab" stroke="#8ca1ab"></path><path d="M0 206L0 260L93 209Z" fill="#1c2a35" stroke="#1c2a35"></path><path d="M95 388L0 534L136 463Z" fill="#43535f" stroke="#43535f"></path><path d="M0 206L93 209L84 114Z" fill="#00101c" stroke="#00101c"></path><path d="M0 65L0 206L84 114Z" fill="#364551" stroke="#364551"></path><path d="M0 260L0 375L94 269Z" fill="#101d28" stroke="#101d28"></path><path d="M900 106L900 0L797 69Z" fill="#7d919b" stroke="#7d919b"></path><path d="M134 0L0 65L84 114Z" fill="#1c2a35" stroke="#1c2a35"></path><path d="M824 600L900 487L786 517Z" fill="#364551" stroke="#364551"></path><path d="M786 517L900 487L835 415Z" fill="#101d28" stroke="#101d28"></path><path d="M0 534L113 600L136 463Z" fill="#364551" stroke="#364551"></path><path d="M705 600L824 600L786 517Z" fill="#6e818c" stroke="#6e818c"></path><path d="M134 0L0 0L0 65Z" fill="#293743" stroke="#293743"></path><path d="M0 375L0 534L95 388Z" fill="#51626e" stroke="#51626e"></path><path d="M824 600L900 600L900 487Z" fill="#5f717d" stroke="#5f717d"></path><path d="M0 534L0 600L113 600Z" fill="#7d919b" stroke="#7d919b"></path></g></svg>