<svg id="SvgjsSvg1032" width="512" height="512" xmlns="http://www.w3.org/2000/svg" version="1.1" xmlns:xlink="http://www.w3.org/1999/xlink" xmlns:svgjs="http://svgjs.com/svgjs">
  <defs id="SvgjsDefs1033"></defs>
  <g id="SvgjsG1034">
    <svg xmlns="http://www.w3.org/2000/svg" xmlns:svgjs="http://svgjs.com/svgjs" xmlns:xlink="http://www.w3.org/1999/xlink" width="512" height="512">
      <svg xmlns="http://www.w3.org/2000/svg" id="Layer_1" data-name="Layer 1" viewBox="0 0 24 24" width="512" height="512">
        <path fill="#ffffff" d="M21.5,2H2.5C1.12,2,0,3.12,0,4.5V22H24V4.5c0-1.38-1.12-2.5-2.5-2.5ZM2.5,3H21.5c.83,0,1.5,.67,1.5,1.5v2.5H1v-2.5c0-.83,.67-1.5,1.5-1.5ZM1,21V8H23v13H1Zm3-10h7v1h-3v6h-1v-6h-3v-1Zm9,0h7v1h-7v-1Zm0,4h7v1h-7v-1Z"/>
      </svg>
    </svg>
  </g>
</svg>
